inDegrees=no
num_controls=7
num_derivatives=13
num_iterations=111
num_multipliers=7
num_parameters=0
num_slacks=7
num_states=26
objective=0.467535
objective_accelerations=0.063402
objective_balance=0.004186
objective_effort=0.051759
objective_height=0.342390
objective_ligament=0.005798
solver_duration=1547.924912
status=Solve_Succeeded
success=true
DataType=double
version=3
OpenSimVersion=4.5
endheader
time	/jointset/ground_pelvis/pelvis_tilt/value	/jointset/ground_pelvis/pelvis_tx/value	/jointset/ground_pelvis/pelvis_ty/value	/jointset/hip_l/hip_flexion_l/value	/jointset/hip_l/hip_adduction_l/value	/jointset/hip_l/hip_rotation_l/value	/jointset/back/lumbar_extension/value	/jointset/patellofemoral_l/patellar_flexion_l/value	/jointset/knee_l/knee_flexion_l/value	/jointset/knee_l/knee_adduction_l/value	/jointset/knee_l/knee_rotation_l/value	/jointset/ankle_l/ankle_angle_l/value	/jointset/subtalar_l/subtalar_angle_l/value	/jointset/ground_pelvis/pelvis_tilt/speed	/jointset/ground_pelvis/pelvis_tx/speed	/jointset/ground_pelvis/pelvis_ty/speed	/jointset/hip_l/hip_flexion_l/speed	/jointset/hip_l/hip_adduction_l/speed	/jointset/hip_l/hip_rotation_l/speed	/jointset/back/lumbar_extension/speed	/jointset/patellofemoral_l/patellar_flexion_l/speed	/jointset/knee_l/knee_flexion_l/speed	/jointset/knee_l/knee_adduction_l/speed	/jointset/knee_l/knee_rotation_l/speed	/jointset/ankle_l/ankle_angle_l/speed	/jointset/subtalar_l/subtalar_angle_l/speed	/forceset/tau_hip_flexion_l	/forceset/tau_hip_adduction_l	/forceset/tau_hip_rotation_l	/forceset/tau_knee_flexion_l	/forceset/tau_ankle_angle_l	/forceset/tau_subtalar_angle_l	/forceset/tau_lumbar_extension	lambda_cid13_p0	lambda_cid13_p1	lambda_cid13_p2	lambda_cid13_p3	lambda_cid13_p4	lambda_cid13_p5	lambda_cid14_p0	/jointset/ground_pelvis/pelvis_tilt/accel	/jointset/ground_pelvis/pelvis_tx/accel	/jointset/ground_pelvis/pelvis_ty/accel	/jointset/hip_l/hip_flexion_l/accel	/jointset/hip_l/hip_adduction_l/accel	/jointset/hip_l/hip_rotation_l/accel	/jointset/back/lumbar_extension/accel	/jointset/patellofemoral_l/patellar_flexion_l/accel	/jointset/knee_l/knee_flexion_l/accel	/jointset/knee_l/knee_adduction_l/accel	/jointset/knee_l/knee_rotation_l/accel	/jointset/ankle_l/ankle_angle_l/accel	/jointset/subtalar_l/subtalar_angle_l/accel	gamma_cid13_p0	gamma_cid13_p1	gamma_cid13_p2	gamma_cid13_p3	gamma_cid13_p4	gamma_cid13_p5	gamma_cid14_p0
1	-0.159420159724918	-0.07714095424916374	0.538103588837139	1.782278114219998	-0.3056827267875255	0.09866991361591985	-0.9599226177789099	1.78010864292069	1.780108642920696	0.07396932440708605	-0.1745119635155564	0.2850315228407598	0.09729034740918996	0.07287002203119328	0.01342562050259652	0.08090043872942485	-0.2999932174530456	-0.01403527167427496	-0.05925330048547083	0.0001572588241455748	-0.1640393620237273	-0.1640393620237219	-0.01180267155604335	-1.248639837903637e-06	0.0549870581558872	0.008613842444012559	-0.4315790234043855	-0.0090215030315001	-0.01772560897893372	-0.4429570467594929	0.07291376281406095	0.01233064165125596	0.4656731030756994	-32.38654827923306	6.183773690875145	-8.143204548277177	20.01831730340212	-849.3617007730669	-58.76110681933832	-0.03676901306800014	0.359600632244032	-0.2509606104093375	2.420274413412626	-7.008230796271009	-0.2602905107529984	-1.651491803866908	-0.01646287954515579	-6.632815454866575	-6.632815454866591	-1.067111797693313	-0.02596869550592591	-0.4386989801876764	-0.5351243369239557	6.879188104650755e-09	-2.148599713283666e-08	-1.380903671484929e-07	-3.27837610574364e-08	-2.942313854320296e-08	-3.561045159763177e-08	4.922715867611903e-09
1.01	-0.15867345263687	-0.07701911827096959	0.539033443204174	1.778928264831113	-0.3058351808570522	0.09799668790230909	-0.9599215920150076	1.778136995971652	1.778136995971656	0.07379700374741505	-0.1745119457091903	0.2855593320829837	0.09735085818285678	0.0764994268581327	0.01095678170984062	0.1050576088904038	-0.3699470791543536	-0.0164408213853931	-0.07538201696701931	4.957798673695958e-05	-0.2302735338927255	-0.2302735338927213	-0.02265308077998467	5.364683524101858e-06	0.05053471026879548	0.00348748458580369	-0.4308667106625807	-0.008811953779649948	-0.01768000276134904	-0.4431994108242577	0.0730443863482157	0.01255907948247184	0.4653760915504339	-32.29618219074654	6.057217731849486	-8.109866408360768	19.73326770291064	-848.985730590379	-58.93386953454266	-0.03682221713121656	0.3688128327022529	-0.2425741858903304	2.411506583122282	-6.984528832339979	-0.2284473282324313	-1.592091617801625	-0.007668083446602624	-6.616245245273524	-6.616245245273645	-1.092749392244843	0.01402098220618788	-0.4545180038875624	-0.5014860985733048	8.888965005522919e-09	-5.123924537968064e-08	-1.787429993009425e-07	-4.813601185877654e-08	-3.923211796117979e-08	-8.33090642547698e-08	6.365567168142653e-09
1.02	-0.1578896110155977	-0.07692151641513917	0.5402044829259552	1.774879763830159	-0.3060112424490784	0.097162469014383	-0.9599215925389036	1.775503501865452	1.775503501865454	0.07351643021400321	-0.1745118528424023	0.286041414784153	0.09736008646028078	0.08029692867640746	0.008578796029849982	0.1291375096786578	-0.4397235398668307	-0.01875677617415966	-0.09145193534868058	-4.799875498713663e-05	-0.296408793456007	-0.2964087934560032	-0.03345324630393817	1.376344484288499e-05	0.0458417499449976	-0.001642656804563673	-0.43015439792077	-0.00860240452779683	-0.01763439654376754	-0.4434417748890235	0.07317500988236861	0.01278751731369093	0.4650790800251733	-32.20831763382916	5.930128779996013	-8.075333517236736	19.48197719791711	-848.6384480757969	-59.08365879474408	-0.03689078799089077	0.3932200305110981	-0.2327899878562866	2.404820538867618	-6.972750598504851	-0.2423715262826831	-1.639732183889473	-0.0144420604085046	-6.613032993723198	-6.613032993723094	-1.057063057695744	-0.02561160791457206	-0.4868214675289116	-0.5358810433556572	1.116188039761474e-08	-7.952357636282278e-08	-2.14282873072603e-07	-6.333841557592641e-08	-4.7717050143055e-08	-1.269159036294793e-07	7.493672896681556e-09
1.03	-0.1570668520648972	-0.07684717505655449	0.5416157853872703	1.770134793550543	-0.3062099794925843	0.09616786727408252	-0.9599225243680466	1.772209440905161	1.772209440905163	0.07312823722861499	-0.1745116931260544	0.2864751689469202	0.09731795521308227	0.08429192963806749	0.00631094646668609	0.1530954085383608	-0.509201175710201	-0.02096958726362232	-0.1074499750670662	-0.0001367239081684693	-0.3623584462767128	-0.362358446276728	-0.04416829071711348	2.044568545011157e-05	0.04085082990898121	-0.00678417734417423	-0.429059579975442	-0.008374735236737192	-0.01754305470703251	-0.4434433517775732	0.07348988046826724	0.01312782234843359	0.464469289573558	-32.01502497256135	5.721503073138788	-8.011247462745137	19.06934743628553	-847.7628433696543	-59.31911133162874	-0.03697445056080251	0.408197363729605	-0.2205776235877469	2.387127163588223	-6.924871670800735	-0.2075368123942397	-1.57708141103768	-0.005841268161817108	-6.579190307949387	-6.579190307952236	-1.076169349228837	0.01409192529974338	-0.5139707698280261	-0.503328147312925	1.343748087635166e-08	-1.077929183942945e-07	-2.497705758403778e-07	-7.853929024119679e-08	-5.618847163884754e-08	-1.704809902155926e-07	8.618566935710334e-09
